<svg width="248" height="42" viewBox="0 0 248 42" xmlns="http://www.w3.org/2000/svg"><g fill-rule="evenodd"><path d="M65.5 8.23c-2.76.045-5.114 1.177-6.833 3.666h-.09V.083h-3.984v32.495h3.756v-2.942h.09c.81 1.312 2.48 3.62 6.51 3.62 8.052 0 10.41-7.558 10.41-13.213 0-6.653-3.58-11.814-9.87-11.814zm-.634 21.587c-2.534 0-6.472-1.676-6.472-7.966 0-3.84.633-10.04 6.38-10.04 6.155 0 6.473 5.84 6.473 8.87 0 5.207-2.037 9.146-6.38 9.146zm31.362-1.36v-13.62c0-6.063-6.88-6.61-8.78-6.61-5.837 0-9.593 2.22-9.774 7.878h3.666c.27-1.812.905-4.57 5.43-4.57 3.757 0 5.567 1.355 5.567 3.845 0 2.354-1.13 2.716-2.082 2.808L83.692 19c-6.607.814-7.195 5.43-7.195 7.423 0 4.07 3.077 6.832 7.42 6.832 4.617 0 7.016-2.172 8.554-3.846.14 1.81.68 3.62 4.21 3.62.91 0 1.5-.28 2.18-.46v-2.89c-.452.09-.95.18-1.31.18-.813 0-1.31-.408-1.31-1.405zm-3.983-4.07c0 3.167-3.62 5.564-7.33 5.564-2.988 0-4.3-1.53-4.3-4.11 0-2.984 3.122-3.572 5.068-3.85 4.933-.63 5.928-.99 6.56-1.49v3.894h.002zm19.46-16.157c-4.072 0-6.29 2.76-7.15 4.026h-.09V8.908h-3.756v23.67h3.98v-12.9c0-6.426 3.98-7.873 6.24-7.873 3.89 0 5.07 2.082 5.07 6.2v14.572h3.98v-16.11c0-6.744-4.618-8.238-8.28-8.238zm27.562 4.026h-.09c-.95-1.355-2.76-4.027-7.06-4.027-6.29 0-9.865 5.16-9.865 11.81 0 5.65 2.353 13.21 10.408 13.21 2.31 0 5.025-.727 6.743-3.94h.092v3.26h3.754V.08h-3.99v12.174zm-6.517 17.56c-4.345 0-6.38-3.938-6.38-9.14 0-3.033.316-8.872 6.47-8.872 5.748 0 6.38 6.2 6.38 10.047 0 6.3-3.936 7.97-6.47 7.97zm24.754-18.01c3.35 0 5.115 1.9 5.612 5.067h3.847c-.317-4.117-2.67-8.645-8.87-8.645-7.83 0-11.36 5.84-11.36 13.17 0 6.834 3.938 11.856 10.59 11.856 6.925 0 9.233-5.295 9.64-9.05h-3.847c-.68 3.62-2.986 5.612-5.656 5.612-5.476 0-6.472-5.025-6.472-9.098 0-4.207 1.584-8.913 6.516-8.913zm29.598 16.652v-13.62c0-6.064-6.878-6.61-8.78-6.61-5.837 0-9.593 2.22-9.774 7.877h3.666c.27-1.812.905-4.57 5.43-4.57 3.757 0 5.567 1.355 5.567 3.845 0 2.354-1.13 2.716-2.08 2.808l-6.56.812c-6.6.814-7.19 5.43-7.19 7.423 0 4.07 3.078 6.832 7.424 6.832 4.616 0 7.015-2.172 8.554-3.846.135 1.81.677 3.62 4.21 3.62.903 0 1.49-.28 2.17-.46v-2.89c-.452.09-.95.18-1.31.18-.816 0-1.315-.408-1.315-1.405zm-3.983-4.072c0 3.168-3.62 5.565-7.33 5.565-2.99 0-4.3-1.53-4.3-4.11 0-2.984 3.12-3.572 5.06-3.85 4.93-.63 5.93-.99 6.56-1.49v3.894zM216.11 8.23c-3.665 0-5.25 1.628-7.24 3.847-.68-1.268-2.035-3.848-6.29-3.848-4.253 0-6.29 2.76-7.15 4.02h-.092V8.91h-3.754v23.67h3.982v-12.9c0-6.426 3.982-7.873 6.244-7.873 2.94 0 3.71 2.398 3.71 4.39V32.58h3.984V18.14c0-3.168 2.218-6.335 5.567-6.335 3.4 0 4.39 2.218 4.39 5.476v15.3h3.98V16.2c.01-6.654-4.79-7.966-7.33-7.966zm21.496 0c-4.297 0-6.106 2.67-7.058 4.026h-.092V8.908H226.7v33.037h3.983V30.088h.09c1.043 1.674 3.124 3.167 6.29 3.167 8.058 0 10.41-7.558 10.41-13.213 0-6.652-3.575-11.813-9.867-11.813zm-.63 21.587c-2.535 0-6.473-1.676-6.473-7.966 0-3.84.634-10.04 6.38-10.04 6.156 0 6.474 5.84 6.474 8.87 0 5.207-2.04 9.146-6.38 9.146z"/><path d="M0 33h39.597L55 0H15.402L0 33z"/></g></svg>