<svg width="219" height="63" viewBox="0 0 219 63" xmlns="http://www.w3.org/2000/svg"><g fill="none" fill-rule="evenodd"><path d="M17.23 8.28l-.09-.06L2.67.41 2.48.3C2.25.19 2 .12 1.72.12.82.12.09.8.07 1.64l-.01.05.01.04v15.68l-.01.04.01.04c.02.84.75 1.52 1.65 1.52.24 0 .45-.04.65-.13l.32-.16 14.43-7.8.12-.07c.43-.28.71-.75.71-1.28 0-.54-.28-1.01-.72-1.29" fill="#70C7D4"/><path d="M23.63 24.78l-.09-.05-12.11-6.55-.16-.08c-.2-.1-.41-.15-.64-.15-.75 0-1.37.56-1.38 1.27l-.01.04.01.03v13.14l-.01.03.01.04c.01.7.63 1.27 1.38 1.27.2 0 .38-.04.55-.11l.26-.14 12.09-6.53.1-.06c.36-.23.6-.63.6-1.07 0-.45-.24-.84-.6-1.08" fill="#CCD009"/><path d="M29.44 14.49l-.06-.03-7.77-4.21-.11-.05a.877.877 0 0 0-.4-.1c-.49 0-.88.37-.89.82v8.52c.01.45.4.81.89.81.12 0 .24-.02.35-.06l.17-.09 7.75-4.2.07-.03c.23-.15.38-.41.38-.69a.82.82 0 0 0-.38-.69" fill="#FF902F"/><path d="M208.29 20.4h1.53v4.32h.97V20.4h1.55v-.86h-4.05v.86m9.92-.86h-1.42l-.84 2.57c-.08.36-.21.82-.32 1.28h-.03c-.11-.54-.2-.92-.33-1.32l-.81-2.53h-1.47l-.36 5.18h.93l.18-3.04c.02-.46.03-.98.03-1.46h.06c.1.46.27 1.09.35 1.47l.86 2.95h1.01l.87-2.87c.14-.47.29-1.09.41-1.55h.05c.02.58.02 1.05.04 1.46l.18 3.04h.97l-.36-5.18m-51.96-.59c-4.79 0-8.58 2.03-9.79 5.93.21-1.93 1.57-17.19 1.57-17.19h-9.09v38.97h6.68c.05-1.04-.16-4.3-.53-5.6 1.42 3.54 5.53 6.24 10.74 6.24 7.41 0 13.26-6.45 13.26-14.36 0-8.58-5.74-13.99-12.84-13.99zm-2.68 21.59c-4.01 0-5.74-2.24-5.74-7.6 0-5.36 2.05-8.01 6.05-8.01 3.53 0 5.26 3.07 5.26 8.01 0 4.84-1.94 7.6-5.57 7.6zm-16.98-12.96c0-6.45-6.26-9.26-12.84-9.26-6.73 0-12.73 2.6-12.73 8.79 0 .39 0 .87.21 2h9.01c.03-2.88 1.21-3.92 3.09-3.92 2.27 0 3.79.88 3.79 3.02v2.29c-1.32-.16-2.53-.21-3.63-.21-9.1 0-13.52 3.74-13.52 8.58 0 5.41 4.63 8.54 9.84 8.54 4.94 0 8.94-3.65 9.52-9.42h.53c-.16.78-.22 1.61-.22 2.91 0 5.26 3.82 5.76 7.57 5.76-.45-5.67-.62-14.08-.62-19.08zm-14.26 12.59c-1.68 0-3-.93-3-2.7 0-1.56 1.11-3.85 5.32-3.85.73 0 1.52.05 2.42.21-.21 5.2-2.74 6.34-4.74 6.34zm-25.84-21.22c-4.79 0-8.58 2.03-9.79 5.93.21-1.93 1.61-17.19 1.61-17.19h-9.13v38.97h6.68c.05-1.04-.16-4.3-.53-5.6 1.42 3.54 5.53 6.24 10.74 6.24 7.42 0 13.26-6.45 13.26-14.36 0-8.58-5.74-13.99-12.84-13.99zm-2.68 21.59c-4.01 0-5.74-2.24-5.74-7.6 0-5.36 2.05-8.01 6.05-8.01 3.53 0 5.26 3.07 5.26 8.01 0 4.84-1.94 7.6-5.57 7.6z" fill="#CCD009"/><path d="M56.15 61.13c-.61.64-1.48.93-2.81.93h-2.52v-6.75h2.52c1.31 0 2.2.29 2.83.93.55.57.97 1.6.97 2.45 0 .86-.39 1.81-.99 2.44zm-1.07-4.47c-.43-.35-.87-.46-1.83-.46h-1.34v4.97h1.25c.99 0 1.46-.12 1.93-.49.55-.44.91-1.25.91-2.01 0-.78-.35-1.54-.92-2.01zm5.87-1.35h1.09v6.75h-1.09v-6.75zm9.55 1.34c-.36-.24-.52-.3-.86-.41-.36-.1-.66-.14-.96-.14-.87 0-1.4.31-1.4.83 0 .14.03.27.09.36.2.29.43.42 1.76 1.06 1.28.62 1.7 1.08 1.7 1.92 0 1.2-.95 1.92-2.49 1.92-.52 0-1-.07-1.4-.21-.29-.11-.49-.21-.97-.51l.48-.92c.43.31.62.43.89.54.34.14.74.23 1.13.23.8 0 1.27-.34 1.27-.91 0-.45-.23-.75-.77-1l-1.25-.6c-1.04-.49-1.51-1.06-1.51-1.78 0-1.12.97-1.84 2.49-1.84.44 0 .88.06 1.27.17.31.09.48.17.91.4l-.38.89m9.1 0c-.31-.23-.44-.31-.69-.4-.3-.1-.71-.16-1.11-.16-1.55 0-2.62 1.03-2.62 2.51 0 .79.3 1.5.82 2.01.51.49 1.14.71 2.14.71.64 0 .95-.08 1.52-.36l.31.79c-.77.31-1.37.44-2.04.44-2.29 0-3.89-1.45-3.89-3.53 0-1.98 1.63-3.48 3.79-3.48.87 0 1.54.2 2.28.65l-.51.82m7.03 5.54c-2.2 0-3.79-1.47-3.79-3.5 0-2.03 1.59-3.51 3.79-3.51 2.19 0 3.79 1.48 3.79 3.51s-1.6 3.5-3.79 3.5zm0-6.1c-1.5 0-2.65 1.11-2.65 2.6 0 1.48 1.15 2.61 2.65 2.61s2.63-1.13 2.63-2.61c0-1.49-1.13-2.6-2.63-2.6zm9.94 6.14H96l-2.97-6.92h1.17l2.06 4.87c.04.09.07.19.07.32.01-.13.03-.2.09-.32l1.91-4.87h1.17l-2.93 6.92m6.39-.17v-6.75h4.23v.89h-3.14v1.95h2.6v.89h-2.6v2.13h3.23v.89h-4.32m12.13 0l-1.8-2.75h-.99v2.75h-1.08v-6.75h2.3c1.64 0 2.55.67 2.55 1.92 0 1.05-.65 1.84-1.61 1.99l1.89 2.84h-1.26zm-.61-5.68c-.23-.17-.32-.18-1.1-.18h-1.08v2.22h1.08c.7 0 .84-.03 1.14-.29.26-.22.37-.49.37-.86 0-.39-.14-.69-.41-.89zm16.97 5.68v-5.38c-.08.35-.12.45-.27.79l-2.1 4.59h-.86l-1.88-4.31c-.17-.38-.22-.51-.28-.89v5.2h-1.08v-6.75h1.39l2.21 4.99c.09.21.09.25.13.53.04-.21.06-.26.14-.53l2.3-4.99h1.38v6.75h-1.08m10.52-.31c-.52.3-1.29.51-1.94.51-.66 0-1.43-.21-1.96-.51-.72-.42-.99-1.1-.99-2.44v-4h1.07v4.18c0 1.23.65 1.87 1.88 1.87s1.87-.64 1.87-1.87v-4.18h1.07v4c0 1.34-.27 2.02-1 2.44m9.23-5.1c-.36-.24-.51-.3-.86-.41-.36-.1-.66-.14-.96-.14-.87 0-1.4.31-1.4.83 0 .14.03.27.09.36.2.29.43.42 1.76 1.06 1.28.62 1.7 1.08 1.7 1.92 0 1.2-.95 1.92-2.49 1.92-.51 0-1-.07-1.4-.21-.29-.11-.49-.21-.97-.51l.48-.92c.43.31.62.43.89.54.34.14.74.23 1.13.23.8 0 1.27-.34 1.27-.91 0-.45-.23-.75-.77-1l-1.24-.6c-1.05-.49-1.52-1.06-1.52-1.78 0-1.12.97-1.84 2.49-1.84.44 0 .88.06 1.27.17.32.09.49.17.92.4l-.39.89m4.37-1.34h1.09v6.75h-1.09v-6.75zm10.59 1.34c-.31-.23-.44-.31-.69-.4-.3-.1-.71-.16-1.11-.16-1.54 0-2.62 1.03-2.62 2.51 0 .79.3 1.5.82 2.01.51.49 1.14.71 2.14.71.65 0 .95-.08 1.52-.36l.31.79c-.77.31-1.37.44-2.04.44-2.29 0-3.89-1.45-3.89-3.53 0-1.98 1.63-3.48 3.79-3.48.87 0 1.54.2 2.29.65l-.52.82" fill="#B4E2D8"/><path d="M196.78 19.64c0 6.5-.03 13.4-2.14 18.27 0 0-2.85-10.04-6-14.94-2.73-4.26-8.04-4.18-12.77-3.55l15.81 25.21c0 6.4-5.42 9.72-8.63 9.72-1.94 0-2.28-1.05-1.59-1.05 2.36 0 4.54-1.99 4.54-5.01 0-2.76-2.42-5.26-5.32-5.26-3.89 0-5.89 2.76-5.89 6.61 0 5.46 4.37 7.75 9.1 7.75 12.51 0 22.11-15.8 22.11-37.75h-9.22" fill="#CCD009"/><path d="M45.08 39.44c-3.69 0-7.58-3.01-7.58-8.37 0-4.22 2.47-8.01 7.31-8.17-.84.83-1.31 1.98-1.31 3.28 0 3.64 2.26 5.3 5.52 5.3 3.05 0 5.53-2.18 5.53-5.46 0-5.04-5.21-7.7-10.53-7.7-7.05 0-15.2 4.42-15.2 14.57 0 7.86 5.94 14.52 14.1 14.52 5.65 0 9.98-1.79 13.24-6.39L54.26 36c-2.81 2.68-6.76 3.44-9.18 3.44" fill-opacity=".777" fill="#000"/><path d="M71.3 40.54c-3.63 0-5.57-2.76-5.57-7.6 0-4.94 1.73-8.01 5.26-8.01 4 0 6.05 2.65 6.05 8.01 0 5.36-1.74 7.6-5.74 7.6zm5.48-32.85s1.42 15.26 1.63 17.19c-1.22-3.9-5-5.93-9.79-5.93-7.1 0-12.84 5.41-12.84 13.99 0 7.91 5.84 14.36 13.26 14.36 5.21 0 9.31-2.7 10.73-6.24-.36 1.3-.57 4.56-.52 5.6h6.68V7.69h-9.15z" fill-opacity=".777" fill="#000"/></g></svg>