<svg xmlns="http://www.w3.org/2000/svg" width="216" height="146" viewBox="0 0 216 146"><path d="M163.686 17.313c-4.588-4.59-10.115-6.884-16.578-6.884H68.893c-6.463 0-11.99 2.29-16.58 6.88-4.59 4.59-6.884 10.117-6.884 16.58v78.214c0 6.463 2.29 11.99 6.88 16.58 4.59 4.59 10.117 6.885 16.58 6.885h78.214c6.463 0 11.99-2.295 16.578-6.885 4.59-4.59 6.885-10.117 6.885-16.58V33.893c0-6.463-2.296-11.99-6.885-16.58zm-11.772 57.48h-14.258v51.734H116.31V74.792h-10.673V56.95h10.673V46.275c0-7.66 1.793-13.443 5.377-17.354s9.504-5.863 17.76-5.863h14.26V40.9h-8.962c-3.042 0-4.984.528-5.826 1.588-.846 1.06-1.267 2.92-1.267 5.58v8.88h16.132l-1.874 17.844z"/></svg>