<svg xmlns="http://www.w3.org/2000/svg" width="110" height="40" viewBox="0 0 110 40"><path fill="#A6A6A6" d="M105.27 40H4.73A4.73 4.73 0 0 1 0 35.277V4.727A4.733 4.733 0 0 1 4.73 0h100.54c2.604 0 4.73 2.12 4.73 4.726v30.55A4.733 4.733 0 0 1 105.27 40z"/><path d="M109.104 35.277a3.83 3.83 0 0 1-3.834 3.83H4.73a3.834 3.834 0 0 1-3.84-3.83V4.727A3.84 3.84 0 0 1 4.73.89h100.54c2.12 0 3.834 1.72 3.834 3.836v30.55z"/><path fill="#FFF" d="M30.205 19.728c-.03-3.223 2.65-4.79 2.773-4.864-1.518-2.204-3.87-2.505-4.696-2.53-1.977-.206-3.892 1.18-4.9 1.18-1.025 0-2.575-1.158-4.245-1.125-2.148.03-4.16 1.27-5.263 3.19-2.276 3.923-.578 9.69 1.602 12.86 1.09 1.56 2.364 3.29 4.034 3.23 1.63-.066 2.24-1.038 4.21-1.038 1.95 0 2.524 1.036 4.225.997 1.752-.02 2.855-1.556 3.907-3.123 1.26-1.78 1.767-3.532 1.787-3.623-.04-.015-3.407-1.29-3.44-5.154zM26.99 10.25c.877-1.093 1.48-2.58 1.312-4.09-1.27.057-2.86.876-3.774 1.946-.81.942-1.533 2.486-1.346 3.938 1.426.105 2.892-.717 3.808-1.794z"/><linearGradient id="a" gradientUnits="userSpaceOnUse" x1="82.513" y1=".89" x2="82.513" y2="36.947" gradientTransform="matrix(1 0 0 -1 0 41)"><stop offset="0" stop-color="#1a1a1a" stop-opacity=".1"/><stop offset=".123" stop-color="#212121" stop-opacity=".151"/><stop offset=".308" stop-color="#353535" stop-opacity=".227"/><stop offset=".532" stop-color="#575757" stop-opacity=".318"/><stop offset=".783" stop-color="#858585" stop-opacity=".421"/><stop offset="1" stop-color="#b3b3b3" stop-opacity=".51"/></linearGradient><path fill="url(#a)" d="M105.27 0H55.026L81.35 40h23.92a4.733 4.733 0 0 0 4.73-4.723V4.727A4.734 4.734 0 0 0 105.27 0z"/><path d="M47.036 19.04c0 .38-.125.69-.375.928-.25.236-.57.354-.962.354a1.22 1.22 0 0 1-.898-.365 1.245 1.245 0 0 1-.366-.918c0-.37.126-.677.376-.91a1.3 1.3 0 0 1 .93-.36c.366 0 .676.12.926.356.25.237.374.54.374.91zM46.8 31.497h-2.133V21.9H46.8v9.597zm11.51-11.51h-3.83v11.51h-2.134v-11.51h-3.79V18.19h9.752v1.797h.003zm8.846 11.51H65.28l-.118-1.46h-.04c-.67 1.12-1.685 1.678-3.04 1.678-.947 0-1.705-.296-2.27-.888-.67-.726-1.007-1.816-1.007-3.278V21.9h2.133v5.29c0 1.846.63 2.767 1.896 2.767.946 0 1.604-.46 1.976-1.383.092-.237.14-.507.14-.81V21.9h2.132v6.83a46.16 46.16 0 0 0 .074 2.764zm11.254 0h-2.133v-5.51c0-1.696-.646-2.546-1.937-2.546-.63 0-1.146.24-1.54.707a2.474 2.474 0 0 0-.59 1.648V31.5h-2.134v-6.854c0-.842-.027-1.756-.08-2.744h1.877l.1 1.48h.06c.25-.46.617-.843 1.105-1.146a3.62 3.62 0 0 1 1.934-.533c.896 0 1.64.29 2.232.87.735.71 1.104 1.77 1.104 3.18l.002 5.75zm10.86-5.25c0 .38-.027.703-.08.967h-6.396c.025.947.336 1.672.928 2.172.54.447 1.238.67 2.094.67.947 0 1.81-.15 2.586-.452l.336 1.48c-.907.395-1.98.592-3.22.592-1.487 0-2.655-.438-3.503-1.312-.85-.875-1.272-2.05-1.272-3.523 0-1.44.396-2.65 1.184-3.61.83-1.023 1.95-1.54 3.357-1.54 1.38 0 2.428.517 3.14 1.54.562.816.846 1.82.846 3.02zm-2.034-.554c.012-.633-.127-1.178-.416-1.64-.367-.593-.934-.89-1.697-.89-.697 0-1.264.29-1.697.87-.355.46-.566 1.014-.633 1.657h4.443v.003zm10.306 3.04c0 .895-.33 1.612-.987 2.15-.658.54-1.566.81-2.726.81-1.1 0-2.027-.215-2.79-.65l.454-1.58a4.46 4.46 0 0 0 2.35.673c1.092 0 1.64-.4 1.64-1.204a1.18 1.18 0 0 0-.356-.88c-.236-.228-.658-.456-1.264-.68-1.71-.633-2.566-1.554-2.566-2.765 0-.83.318-1.52.95-2.073.632-.554 1.47-.83 2.51-.83.944 0 1.755.19 2.43.573l-.458 1.52a3.767 3.767 0 0 0-1.954-.552c-.447 0-.798.104-1.046.315-.252.21-.377.48-.377.81s.133.6.396.81c.224.197.66.415 1.304.65 1.656.632 2.486 1.6 2.486 2.902zM46.12 13.426c-.566 0-1.06-.027-1.468-.074v-6.16a10.92 10.92 0 0 1 1.73-.13c2.34 0 3.42 1.15 3.42 3.028-.002 2.165-1.275 3.336-3.68 3.336zm.344-5.575c-.316 0-.586.02-.81.07v4.68c.122.02.354.028.68.028 1.533 0 2.406-.874 2.406-2.51 0-1.457-.79-2.266-2.276-2.266zm6.352 5.627c-1.32 0-2.174-.985-2.174-2.323 0-1.394.873-2.39 2.248-2.39 1.302 0 2.175.94 2.175 2.316 0 1.412-.9 2.397-2.25 2.397zm.037-3.977c-.725 0-1.19.68-1.19 1.625 0 .93.476 1.607 1.182 1.607s1.18-.726 1.18-1.627c0-.92-.466-1.607-1.172-1.607zm9.277-.643l-1.41 4.516h-.92l-.585-1.96a14.17 14.17 0 0 1-.36-1.46h-.02a10.11 10.11 0 0 1-.362 1.46l-.622 1.96h-.93l-1.33-4.515h1.037L57.13 11c.122.512.226.995.308 1.45h.02c.074-.38.195-.854.372-1.44l.642-2.156h.817l.61 2.11c.15.51.27 1.013.36 1.486h.026c.064-.465.167-.957.307-1.487l.55-2.11h.983zm4.876 4.516h-1.004v-2.59c0-.8-.307-1.197-.91-1.197-.596 0-1.004.51-1.004 1.105v2.688h-1.004V10.15c0-.4-.01-.828-.037-1.293h.883l.047.697h.027c.27-.482.816-.79 1.432-.79.947 0 1.57.726 1.57 1.906v2.705zm2.44 0H68.44v-6.59h1.005v6.59zm3.3.104c-1.32 0-2.174-.985-2.174-2.323 0-1.394.873-2.39 2.248-2.39 1.302 0 2.175.94 2.175 2.316 0 1.412-.902 2.397-2.25 2.397zm.037-3.977c-.725 0-1.19.68-1.19 1.625 0 .93.476 1.607 1.183 1.607.705 0 1.18-.727 1.18-1.628-.002-.92-.468-1.607-1.173-1.607zm5.84 3.873l-.074-.52h-.03c-.31.42-.757.624-1.32.624-.81 0-1.388-.567-1.388-1.33 0-1.114.967-1.69 2.64-1.69v-.084c0-.597-.315-.894-.94-.894-.444 0-.835.11-1.18.332l-.204-.66c.42-.26.94-.39 1.553-.39 1.18 0 1.774.624 1.774 1.87v1.66c0 .456.02.81.063 1.08h-.9zm-.14-2.247c-1.115 0-1.673.27-1.673.91 0 .475.287.707.688.707.512 0 .984-.393.984-.92v-.7zm5.457 2.248l-.046-.723h-.027c-.288.55-.77.83-1.45.83-1.087 0-1.895-.957-1.895-2.305 0-1.414.836-2.408 1.98-2.408.603 0 1.03.207 1.27.615h.02v-2.6h1.005v5.37c0 .44.01.848.037 1.22h-.893zm-.148-2.656c0-.633-.418-1.17-1.06-1.17-.744 0-1.198.658-1.198 1.588 0 .91.474 1.535 1.18 1.535.632 0 1.078-.55 1.078-1.2v-.75zm6.474 2.76c-1.318 0-2.174-.985-2.174-2.323 0-1.394.873-2.39 2.248-2.39 1.303 0 2.176.94 2.176 2.316 0 1.416-.903 2.4-2.25 2.4zm.037-3.977c-.725 0-1.19.68-1.19 1.63 0 .93.477 1.606 1.183 1.606s1.18-.727 1.18-1.628c0-.92-.467-1.607-1.173-1.607zm7.067 3.877h-1.003v-2.59c0-.8-.307-1.197-.91-1.197-.596 0-1.004.51-1.004 1.104v2.686H93.45v-3.23c0-.4-.01-.828-.038-1.293h.883l.047.697h.027c.27-.482.81-.79 1.43-.79.943 0 1.57.726 1.57 1.906v2.705z" fill="#FFF"/></svg>