<svg width="93" height="53" viewBox="0 0 93 53" xmlns="http://www.w3.org/2000/svg" xmlns:xlink="http://www.w3.org/1999/xlink"><defs><path d="M1.053 24.152c-.194 0-.348.15-.373.364L0 29.68l.68 5.077c.025.214.18.363.373.363.188 0 .34-.148.37-.36v-.002l.807-5.077-.806-5.16c-.03-.21-.184-.36-.37-.36zm3.824-2.822c-.032-.222-.19-.375-.387-.375s-.36.158-.387.375l-.914 8.35.91 8.167c.02.22.19.377.38.377s.354-.154.386-.375l1.04-8.17-1.04-8.35zm14.404-7.703a.717.717 0 0 0-.7.697l-.73 15.364.73 9.93a.72.72 0 0 0 .71.693.72.72 0 0 0 .705-.69v.007l.823-9.93-.822-15.364c-.02-.39-.33-.697-.703-.697zm-7.45 5.34c-.29 0-.52.23-.54.537l-.82 10.18.82 9.85a.558.558 0 0 0 .546.534c.285 0 .52-.23.545-.535l.933-9.85-.93-10.18c-.025-.306-.26-.536-.545-.536zM26.86 40.31a.873.873 0 0 0 .862-.855l.714-9.762-.713-20.455a.873.873 0 0 0-.86-.855.87.87 0 0 0-.864.856l-.64 20.45.633 9.76a.868.868 0 0 0 .86.85zm15.51.046c.64 0 1.17-.527 1.18-1.175v.01l.5-9.48-.5-23.625a1.194 1.194 0 0 0-1.18-1.175c-.64 0-1.17.526-1.18 1.175L40.745 29.7l.445 9.496c.01.645.54 1.17 1.18 1.17zm-7.814-.037a1.03 1.03 0 0 0 1.02-1.02l.607-9.615-.606-20.603a1.027 1.027 0 0 0-1.02-1.017c-.562 0-1.01.448-1.023 1.018l-.54 20.603.54 9.613c.014.564.463 1.01 1.024 1.01zm-19.014-.09c.33 0 .6-.27.624-.62l.878-9.93-.876-9.45c-.024-.35-.292-.61-.624-.61-.337 0-.605.262-.626.613l-.773 9.443.775 9.93c.022.35.29.615.625.615zm-7.396-.55c.242 0 .438-.19.466-.46l.984-9.55-.985-9.906c-.03-.265-.22-.456-.47-.456-.24 0-.44.192-.46.456l-.87 9.91.87 9.547c.024.266.22.458.466.458zm30.3-30.937a1.1 1.1 0 0 0-1.1 1.095l-.493 19.85.495 9.553a1.1 1.1 0 0 0 2.202-.01v.01l.552-9.553-.552-19.85a1.103 1.103 0 0 0-1.1-1.096zm-15.39 31.58c.42 0 .764-.34.784-.777l.768-9.863-.768-18.875a.797.797 0 0 0-.783-.777.795.795 0 0 0-.784.775l-.68 18.88.684 9.868c.017.43.36.773.783.773zm8.577-.93v-.007l.66-9.7-.66-21.144a.95.95 0 0 0-.94-.938.947.947 0 0 0-.94.935l-.586 21.142.587 9.705c.014.52.428.93.94.93a.95.95 0 0 0 .94-.933v.003zM81.553 17.5a11.42 11.42 0 0 0-4.423.89C76.217 8.086 67.57 0 57.027 0c-2.58 0-5.095.508-7.316 1.367-.86.334-1.09.678-1.1 1.345v36.3c.01.7.56 1.283 1.24 1.352.03.003 31.5.02 31.707.02 6.316 0 11.437-5.122 11.437-11.44 0-6.316-5.12-11.438-11.436-11.438zM46.27 2.68c-.687 0-1.25.564-1.26 1.257l-.517 25.765.517 9.35a1.27 1.27 0 0 0 1.26 1.247 1.27 1.27 0 0 0 1.26-1.26v.01l.56-9.35-.56-25.77a1.272 1.272 0 0 0-1.26-1.26zM9.236 47.654c-1.353-.318-1.72-.488-1.72-1.024 0-.378.306-.77 1.22-.77.78 0 1.39.318 1.94.88l1.23-1.195c-.805-.84-1.78-1.34-3.108-1.34-1.684 0-3.05.95-3.05 2.5 0 1.68 1.1 2.18 2.67 2.546 1.61.37 1.903.61 1.903 1.16 0 .65-.47.93-1.48.93-.814 0-1.582-.28-2.18-.97l-1.23 1.1c.646.95 1.89 1.546 3.316 1.546 2.33 0 3.354-1.097 3.354-2.72 0-1.853-1.5-2.316-2.855-2.633zm7.854-3.45c-2.328 0-3.705 1.804-3.705 4.4 0 2.598 1.377 4.4 3.705 4.4 2.328 0 3.707-1.802 3.707-4.4 0-2.596-1.38-4.4-3.707-4.4zm0 7.108c-1.377 0-1.95-1.183-1.95-2.706 0-1.524.573-2.707 1.95-2.707 1.38 0 1.95 1.18 1.95 2.7s-.57 2.703-1.95 2.703zm10.596-2.182c0 1.365-.672 2.207-1.756 2.207-1.085 0-1.743-.866-1.743-2.23v-4.77H22.48v4.793c0 2.486 1.39 3.876 3.45 3.876 2.17 0 3.463-1.427 3.463-3.9v-4.77h-1.707v4.794zm9.07-1.183c0 .476.024 1.548.024 1.865-.11-.22-.39-.646-.597-.964l-3.025-4.512h-1.633v8.536h1.683v-3.756c0-.476-.024-1.548-.024-1.865.11.22.39.65.597.97l3.14 4.66h1.528v-8.54H36.76v3.61zm6.547-3.61h-2.67v8.536h2.547c2.195 0 4.366-1.27 4.366-4.268 0-3.122-1.805-4.268-4.243-4.268zm-.123 6.878h-.84v-5.22h.902c1.805 0 2.55.866 2.55 2.61 0 1.56-.82 2.61-2.612 2.61zm9.645-5.317c.768 0 1.256.342 1.56.927l1.586-.73c-.53-1.11-1.51-1.89-3.12-1.89-2.23 0-3.79 1.803-3.79 4.4 0 2.694 1.5 4.4 3.73 4.4 1.55 0 2.58-.72 3.16-1.926l-1.44-.86c-.45.753-.9 1.082-1.67 1.082-1.28 0-2.02-1.17-2.02-2.706 0-1.584.734-2.707 2.01-2.707zm6.33-1.56H57.45v8.535h5.13V51.19h-3.424v-6.853zm7.92-.134c-2.33 0-3.706 1.804-3.706 4.4 0 2.598 1.37 4.4 3.7 4.4s3.703-1.802 3.703-4.4c0-2.596-1.378-4.4-3.706-4.4zm0 7.108c-1.378 0-1.95-1.183-1.95-2.706 0-1.524.572-2.707 1.95-2.707 1.377 0 1.95 1.18 1.95 2.7s-.573 2.703-1.95 2.703zM77.67 49.13c0 1.365-.67 2.207-1.754 2.207-1.087 0-1.744-.866-1.744-2.23v-4.77h-1.707v4.793c0 2.486 1.39 3.876 3.45 3.876 2.17 0 3.463-1.427 3.463-3.9v-4.77H77.67v4.794zm6.51-4.793h-2.668v8.536h2.547c2.19 0 4.36-1.27 4.36-4.268 0-3.122-1.81-4.268-4.248-4.268zm-.12 6.878h-.842v-5.22h.903c1.81 0 2.55.866 2.55 2.61 0 1.56-.81 2.61-2.61 2.61z" id="a"/></defs><g fill-rule="evenodd"><use xlink:href="#a"/><use fill="none" xlink:href="#a"/></g></svg>