<svg xmlns="http://www.w3.org/2000/svg" width="216" height="146" viewBox="0 0 216 146"><path d="M163.686 17.313c-4.588-4.59-10.115-6.884-16.578-6.884H68.893c-6.463 0-11.99 2.292-16.58 6.88-4.59 4.59-6.884 10.118-6.884 16.58v78.215c0 6.463 2.292 11.99 6.88 16.58 4.59 4.59 10.118 6.885 16.58 6.885h78.215c6.463 0 11.99-2.294 16.578-6.884 4.59-4.59 6.885-10.117 6.885-16.58V33.893c0-6.463-2.296-11.99-6.885-16.58zm-44.36 11.202h5.458v22.16c0 1.304.026 2.01.08 2.12.055.868.49 1.302 1.305 1.302 1.083 0 2.225-.84 3.42-2.525V28.515h5.46V58.66h-5.46V55.4c-2.23 2.444-4.32 3.667-6.275 3.667-1.737 0-2.905-.733-3.504-2.2-.325-.977-.486-2.47-.486-4.48V28.514zm-20.613 9.777c0-3.15.57-5.513 1.71-7.088 1.467-2.064 3.585-3.096 6.355-3.096 2.662 0 4.78 1.033 6.355 3.096 1.14 1.575 1.71 3.938 1.71 7.088v10.592c0 3.26-.57 5.622-1.71 7.088-1.574 2.065-3.693 3.097-6.355 3.097-2.77 0-4.888-1.036-6.354-3.1-1.14-1.575-1.71-3.938-1.71-7.088v-10.59zM84.047 18.168l4.318 15.888 4.155-15.888h6.11L91.3 42.284V58.66h-6.03V42.284c-.598-2.987-1.847-7.278-3.748-12.872l-1.874-5.622-1.956-5.622h6.355zm67.135 98.34c-.543 2.334-1.697 4.316-3.464 5.946-1.764 1.63-3.813 2.58-6.15 2.853-7.44.814-18.63 1.222-33.566 1.222-14.937 0-26.126-.41-33.567-1.225-2.335-.272-4.385-1.223-6.15-2.853-1.766-1.63-2.92-3.612-3.463-5.947-1.086-4.563-1.63-11.624-1.63-21.184 0-9.396.544-16.456 1.63-21.182.543-2.39 1.697-4.387 3.462-5.99 1.766-1.603 3.843-2.54 6.233-2.81 7.386-.817 18.548-1.224 33.485-1.224 14.99 0 26.18.408 33.567 1.223 2.333.27 4.395 1.207 6.19 2.81 1.79 1.602 2.96 3.6 3.502 5.99 1.03 4.507 1.547 11.57 1.547 21.182 0 9.56-.543 16.62-1.63 21.183z"/><path d="M69.87 80.25h6.355v34.464h6.03V80.25h6.517v-5.7H69.87zm29.82 27.376c-1.195 1.683-2.336 2.525-3.422 2.525-.76 0-1.168-.405-1.222-1.22-.055-.11-.082-.813-.082-2.12V84.814h-5.377v23.627c0 2.062.163 3.53.49 4.397.488 1.52 1.63 2.28 3.42 2.28 2.01 0 4.075-1.22 6.193-3.665v3.26h5.458v-29.9H99.69v22.813zm21.103-23.22c-1.956 0-3.803 1.086-5.54 3.26v-13.12h-5.46v40.167h5.46v-2.933c1.79 2.228 3.64 3.34 5.54 3.34 2.227 0 3.666-1.14 4.316-3.42.38-1.142.57-3.124.57-5.948V93.857c0-2.88-.194-4.89-.57-6.03-.65-2.28-2.09-3.42-4.32-3.42zm-.49 21.753c0 2.66-.787 3.99-2.363 3.99-.922 0-1.82-.436-2.688-1.305v-18.25c.87-.867 1.766-1.303 2.688-1.303 1.576 0 2.363 1.357 2.363 4.073v12.792zm20.285-.043c0 .57-.014 1.02-.04 1.345-.026.325-.04.516-.04.57-.326 1.41-1.14 2.117-2.445 2.117-1.847 0-2.77-1.386-2.77-4.156V100.7h10.836v-6.192c0-3.15-.57-5.485-1.714-7.007-1.466-2.06-3.584-3.093-6.355-3.093-2.77 0-4.94 1.033-6.517 3.096-1.086 1.47-1.63 3.805-1.63 7.008v10.51c0 3.206.57 5.54 1.712 7.01 1.575 2.063 3.775 3.095 6.6 3.095 2.88 0 5.05-1.086 6.52-3.26a7.666 7.666 0 0 0 1.22-3.258c.11-.76.164-1.93.164-3.504v-.732h-5.54v1.75zm-5.293-12.67c0-2.77.896-4.153 2.688-4.153 1.793 0 2.688 1.384 2.688 4.154v2.77h-5.373v-2.77zm-28.517-39.35c1.738 0 2.607-1.385 2.607-4.155v-12.71c0-2.824-.87-4.237-2.607-4.237s-2.607 1.413-2.607 4.237v12.71c0 2.77.87 4.154 2.61 4.154z"/></svg>